<svg id="Layer_1" data-name="Layer 1" xmlns="http://www.w3.org/2000/svg" xmlns:xlink="http://www.w3.org/1999/xlink" viewBox="0 0 891.6662 153.1217">
  <defs>
    <style>
      .cls-1 {
        fill: url(#linear-gradient);
      }

      .cls-1, .cls-2 {
        stroke-width: 0px;
      }

      <!-- .text-black {
        fill: #fff;
      } -->
    </style>
    <linearGradient id="linear-gradient" x1="109.308" y1="153.1217" x2="109.308" y2="13.9892" gradientUnits="userSpaceOnUse">
      <stop offset="0" stop-color="#5845e6"/>
      <stop offset=".4556" stop-color="#0cdef0"/>
      <stop offset="1" stop-color="#00e276"/>
    </linearGradient>
  </defs>
  <path fill="black" d="m356.8544,37.0615c-10.3209,0-19.7036,3.5654-25.8962,14.074-4.2222-9.2888-13.4172-14.074-23.9258-14.074-9.0074,0-18.953,4.316-23.5505,12.4789v-10.1333h-18.2024v79.7526h18.953v-47.3825c0-10.2271,6.3802-17.7332,16.5135-17.7332,10.7901,0,15.3876,7.2247,15.3876,16.4197v48.696h18.5777v-47.3825c0-9.8518,6.474-17.7332,16.5135-17.7332,10.6024,0,15.3876,7.037,15.3876,16.4197v48.696h18.39v-51.7923c0-21.111-13.6987-30.306-28.148-30.306Z"/>
  <path fill="black" d="m439.6095,36.8739c-23.7381,0-41.2837,17.9209-41.2837,42.3158,0,24.5826,17.5456,42.4096,41.2837,42.4096,23.9258,0,41.4714-17.8271,41.4714-42.4096,0-24.3949-17.5456-42.3158-41.4714-42.3158Zm0,67.7428c-11.6345,0-22.3307-8.9135-22.3307-25.427s10.6962-25.0517,22.3307-25.0517c11.8222,0,22.3307,8.5382,22.3307,25.0517,0,16.7011-10.5086,25.427-22.3307,25.427Z"/>
  <path fill="black" d="m537.3768,37.1554c-8.8197,0-18.2962,3.7531-23.5505,12.9481v-10.6962h-18.4838v79.7526h18.8592v-45.9751c0-10.5086,5.7234-18.8592,16.5135-18.8592,12.0098,0,16.4197,7.8814,16.4197,17.7332v47.1948h19.0468v-50.4787c0-17.5456-9.2888-31.6196-28.8048-31.6196Z"/>
  <path fill="black" d="m621.3517,36.8739c-23.7381,0-41.2837,17.9209-41.2837,42.3158,0,24.5826,17.5456,42.4096,41.2837,42.4096,23.9258,0,41.4714-17.8271,41.4714-42.4096,0-24.3949-17.5456-42.3158-41.4714-42.3158Zm0,67.7428c-11.6345,0-22.3307-8.9135-22.3307-25.427s10.6962-25.0517,22.3307-25.0517c11.8222,0,22.3307,8.5382,22.3307,25.0517,0,16.7011-10.5086,25.427-22.3307,25.427Z"/>
  <path fill="black" d="m720.245,38.3751c-10.5086,0-19.3283,5.0666-23.0814,13.7925v-12.7604h-18.4838v79.7526h19.0468v-37.9998c0-14.9184,6.7555-23.4567,21.4863-23.4567,1.9414,0,3.975.1832,6.0987.4579v-19.317c-.8444-.1877-2.8148-.4691-5.0666-.4691Z"/>
  <path fill="black" d="m806.0963,66.7107c0-15.9505-9.3827-29.8369-33.9652-29.8369-19.7036,0-32.0887,12.2913-33.6838,26.1776l17.3579,3.9407c.8444-8.0691,6.3802-14.4493,16.4197-14.4493,10.5086,0,15.1061,5.3481,15.1061,12.1036,0,2.8148-1.3136,5.0666-5.9111,5.7234l-20.4542,3.0963c-13.6049,1.9704-24.0196,9.8518-24.1134,24.0196,0,12.6666,10.3209,24.1134,27.0221,24.1134,12.9481,0,20.8295-6.474,24.5826-12.5728,0,6.3802.6568,9.6641.8444,10.1333h17.7332c-.0938-.8444-.9383-5.5358-.9383-12.7604v-39.6887Zm-18.7653,19.3283c0,15.5752-9.1012,20.6419-19.8912,20.6419-7.5061,0-11.6345-4.879-11.6345-10.3209,0-6.5679,4.7852-9.8518,10.6962-10.7901l20.8295-3.0963v3.5654Z"/>
  <rect fill="black" x="829.9283" y="39.4072" width="18.8592" height="79.8465"/>
  <rect fill="black" x="872.6194" y="3.2839" width="19.0468" height="115.8759"/>
  <path fill="black" d="m839.311,0c-6.7555,0-12.2913,5.6296-12.2913,12.4789s5.5358,12.2913,12.2913,12.2913c6.8493,0,12.4789-5.3481,12.4789-12.2913s-5.6296-12.4789-12.4789-12.4789Z"/>
  <path class="cls-1" d="m215.8166,118.243l-34.5982-82.7551-.0935-.187c-3.9274-7.9482-10.5665-14.3069-18.7017-17.9537-3.5534-1.5897-7.2937-2.6182-11.221-3.0858-10.0054-1.2157-20.3849,1.6831-28.4266,7.8547l-25.5278,21.4135h-.0935l-1.4026,1.3091c-1.4961,1.4026-3.4598,2.1507-5.517,2.1507-1.8702,0-3.7403-.6546-5.143-1.8702l-15.1484-12.7172-.0935-.0935c-6.0781-4.6754-13.8393-6.8261-21.4135-5.9846-2.8987.3741-5.7975,1.1221-8.4158,2.3377-6.0781,2.7118-11.1275,7.5742-14.1198,13.5587l-.2806.2806L2.1495,98.6062c-.187.2805-.3741.6545-.4675,1.0286-2.0572,4.6754-2.2442,9.8184-.4675,14.5873,1.7766,4.769,5.33,8.5093,10.0054,10.66,2.5247,1.1221,5.143,1.6831,7.8547,1.6831,2.3377,0,4.5819-.4675,6.8262-1.2156.0935-.0935.2805-.0935.374-.0935,1.7767-.6546,3.3663-1.6832,4.8625-2.8053l43.6685-36.7489,4.0209-3.4598,53.2999-44.7906.187-.187c.4675-.4675.9351-.8415,1.4961-1.2156l.0935-.0935c3.6468-2.7118,8.1352-4.3014,12.7171-4.3014,2.9923,0,5.7975.6546,8.5093,1.8702,4.3014,1.9637,7.6677,5.143,9.9119,9.2574l.0935.0935c.5611,1.0286,1.0286,2.1507,1.4026,3.2728v.0935l26.7435,63.8664,6.6391,15.8965.0935.187c.0935.187.187.374.3741.6545.187.2806.2805.6546.3741,1.0286.2805,1.2156.187,2.4312-.187,3.6468-.5611,1.4962-1.6831,2.7118-3.1793,3.3663-1.4961.6546-3.0858.7481-4.6754.0935-.6546-.2805-1.2156-.561-1.6831-.9351l-14.0263-11.7821-50.5881-42.5464c-1.5897-1.4026-3.6469-2.1507-5.7975-2.1507-4.769,0-8.5093,3.7403-8.7898,8.6027-.187,3.7403,2.4313,6.3586,2.8053,6.6391l.0935.0935,64.6144,54.235.8416.7481c1.7766,1.4026,3.8338,2.6183,5.9845,3.4598.187.0935.2805.0935.4675.187,2.7118,1.0286,5.6105,1.5897,8.4158,1.5897,3.3663,0,6.6391-.7481,9.7249-2.0572,5.7975-2.6182,10.1924-7.2937,12.4366-13.1847,2.0572-5.9846,1.8702-12.4367-.7481-18.2342-.187-.4675-.4675-.9351-.6546-1.4026Zm-147.1826-51.1492l-48.8114,40.9568c-.0935.0935-.187.0935-.2806.187-.2805.0935-.561.0935-.8415,0-.2805-.0935-.4675-.3741-.5611-.6546-.0935,0-.187-.2805-.0935-.4675q0-.0935.0935-.187v-.0935l.187-.3741,22.7226-54.3285.0935-.2805c.187-.6546.4675-1.2157.7481-1.7767v-.0935c1.2156-2.2442,2.9923-3.9274,5.33-4.956,1.4026-.6545,2.9923-.9351,4.5819-.9351,2.4313,0,4.8625.8416,6.8262,2.2442h.0935c.2805.187.561.4675.8416.6546l9.1638,7.6677c1.7766,1.4961,2.7117,3.7403,2.7117,6.1715s-1.0286,4.7689-2.8053,6.2651Z"/>
</svg>