<svg width="430" height="430" viewBox="0 0 430 430" fill="none" xmlns="http://www.w3.org/2000/svg">
<circle cx="215" cy="215" r="215" fill="white" fill-opacity="0.9"/>
<circle cx="215" cy="215" r="215" fill="url(#paint0_linear_261_10307)"/>
<path d="M93 298V133H154.631C167.256 133 177.849 135.363 186.409 140.09C195.022 144.816 201.522 151.315 205.909 159.587C210.35 167.805 212.57 177.15 212.57 187.624C212.57 198.205 210.35 207.604 205.909 215.822C201.469 224.04 194.915 230.512 186.249 235.239C177.582 239.912 166.909 242.248 154.229 242.248H113.383V217.675H150.217C157.6 217.675 163.645 216.386 168.353 213.808C173.061 211.23 176.538 207.685 178.785 203.173C181.086 198.662 182.236 193.479 182.236 187.624C182.236 181.77 181.086 176.613 178.785 172.155C176.538 167.697 173.034 164.233 168.273 161.762C163.565 159.238 157.493 157.976 150.057 157.976H122.772V298H93Z" fill="black"/>
<path d="M238.43 298V133H300.061C312.686 133 323.279 135.363 331.839 140.09C340.452 144.816 346.952 151.315 351.339 159.587C355.78 167.805 358 177.15 358 187.624C358 198.205 355.78 207.604 351.339 215.822C346.899 224.04 340.345 230.512 331.679 235.239C323.012 239.912 312.339 242.248 299.659 242.248H258.813V217.675H295.647C303.03 217.675 309.075 216.386 313.783 213.808C318.491 211.23 321.969 207.685 324.215 203.173C326.516 198.662 327.666 193.479 327.666 187.624C327.666 181.77 326.516 176.613 324.215 172.155C321.969 167.697 318.464 164.233 313.703 161.762C308.995 159.238 302.923 157.976 295.487 157.976H268.202V298H238.43Z" fill="black"/>
<defs>
<linearGradient id="paint0_linear_261_10307" x1="113" y1="41.5" x2="357" y2="396" gradientUnits="userSpaceOnUse">
<stop stop-color="white" stop-opacity="0.26"/>
<stop offset="1" stop-color="#4F66AF" stop-opacity="0"/>
</linearGradient>
</defs>
</svg>
